PathFileType	4	(X/Y/Z)	/Users/itak/Documents/Research/Walk-IL/dataset/trc/00319_00011.trc
DataRate	CameraRate	NumFrames	NumMarkers	Units	OrigDataRate	OrigDataStartFrame	OrigNumFrames
100.000000	100.000000	4	57	mm	100.000000	72	583
Frame#	Time	RPSI			LPSI			L3			STRN			T10			C7			CLAV			RBAK			LBAK			LSHO			LUPA			LAEL			LAOL			LWPS			LFRA			LHPS			RSHO			RUPA			RAEL			RAOL			RWTS			RWPS			RFRA			RIFD			RHTS			RHPS			RBHD			LFHD			RFHD			LBHD			LHIP			RASI			LASI			LKNE			LTHI			LANK			LTIP			LTOE			LMT1			LMT5			LHEE			RKNE			RTHI			RANK			RTIP			RTOE			RMT5			RHEE			RHIP			RMT1			LWTS			LIFD			LHTS			*53			*54			*55			*56			
		X1	Y1	Z1	X2	Y2	Z2	X3	Y3	Z3	X4	Y4	Z4	X5	Y5	Z5	X6	Y6	Z6	X7	Y7	Z7	X8	Y8	Z8	X9	Y9	Z9	X10	Y10	Z10	X11	Y11	Z11	X12	Y12	Z12	X13	Y13	Z13	X14	Y14	Z14	X15	Y15	Z15	X16	Y16	Z16	X17	Y17	Z17	X18	Y18	Z18	X19	Y19	Z19	X20	Y20	Z20	X21	Y21	Z21	X22	Y22	Z22	X23	Y23	Z23	X24	Y24	Z24	X25	Y25	Z25	X26	Y26	Z26	X27	Y27	Z27	X28	Y28	Z28	X29	Y29	Z29	X30	Y30	Z30	X31	Y31	Z31	X32	Y32	Z32	X33	Y33	Z33	X34	Y34	Z34	X35	Y35	Z35	X36	Y36	Z36	X37	Y37	Z37	X38	Y38	Z38	X39	Y39	Z39	X40	Y40	Z40	X41	Y41	Z41	X42	Y42	Z42	X43	Y43	Z43	X44	Y44	Z44	X45	Y45	Z45	X46	Y46	Z46	X47	Y47	Z47	X48	Y48	Z48	X49	Y49	Z49	X50	Y50	Z50	X51	Y51	Z51	X52	Y52	Z52	X53	Y53	Z53	X54	Y54	Z54	X55	Y55	Z55	X56	Y56	Z56	X57	Y57	Z57	

73	0.72	-1572.204345703125	983.2200317382812	21.41021156311035	-1569.934204101562	983.788330078125	-107.4684066772461	-1576.916137695312	1040.9931640625	-39.53394317626953	-1355.972900390625	1219.4150390625	-48.15458297729492	-1597.940307617188	1161.603271484375	-51.69218444824219	-1555.800170898438	1409.9208984375	-65.58779907226562	-1398.869140625	1344.063842773438	-53.69704055786133	-1606.387329101562	1271.203857421875	2.790334939956665	-1559.997436523438	1372.276733398438	-168.5427398681641	-1470.078002929688	1385.128051757812	-218.7098083496094	-1478.577758789062	1264.991455078125	-288.4623413085938	-1446.013549804688	1060.5009765625	-292.9288024902344	-1516.572265625	1044.254516601562	-248.7918090820312	-1373.49365234375	808.811279296875	-287.0896911621094	-1423.046508789062	956.9901733398438	-293.75390625	-1372.0625	738.117431640625	-279.3195495605469	-1500.200561523438	1392.409545898438	99.94208526611328	-1510.39306640625	1326.665771484375	165.0455627441406	-1487.79443359375	1057.273315429688	197.2055969238281	-1536.603149414062	1048.643798828125	116.0345153808594	-1373.677490234375	833.4937133789062	138.3634185791016	-1403.217651367188	816.4039306640625	206.3484344482422	-1458.543579101562	991.2141723632812	200.9739685058594	-1350.410766601562	660.9893798828125	151.7735290527344	-1339.943237304688	734.2689819335938	150.5165557861328	-1386.522338867188	733.8541259765625	202.6809997558594	-1529.551147460938	1603.600830078125	20.76108932495117	-1361.095703125	1629.721069335938	-100.7328491210938	-1369.144897460938	1629.117797851562	-1.037620663642883	-1543.309692382812	1596.150146484375	-123.8698806762695	-1481.090698242188	925.2431030273438	-209.7106475830078	-1389.23095703125	955.32373046875	92.02845764160156	-1362.300537109375	949.5910034179688	-146.5876312255859	-1454.41357421875	466.6184692382812	-185.3004302978516	-1444.751708984375	604.6031494140625	-196.9270782470703	-1558.975708007812	49.84642028808594	-165.8291778564453	-1507.827514648438	251.4258880615234	-187.0542907714844	-1355.730590820312	46.2213249206543	-99.27293395996094	-1425.568725585938	33.61407089233398	-60.81129837036133	-1432.844360351562	45.94596481323242	-174.2685394287109	-1595.861328125	46.50981140136719	-99.32769775390625	-1480.47509765625	461.2613220214844	101.8190078735352	-1432.864990234375	717.43115234375	133.1948852539062	-1558.724975585938	54.54007720947266	69.20451354980469	-1480.7529296875	340.7349853515625	90.98245239257812	-1363.721313476562	45.33820343017578	26.41603851318359	-1457.571533203125	42.43916702270508	93.23368835449219	-1607.885986328125	52.29849624633789	19.68187522888184	-1496.072509765625	926.8565673828125	131.6755676269531	-1417.783569335938	40.24111557006836	-17.19967460632324	-1344.017456054688	823.7362670898438	-225.7346038818359	-1329.474487304688	661.0828247070312	-218.3916931152344	-1332.460571289062	738.1187133789062	-234.8920745849609	nan	nan	nan	nan	nan	nan	nan	nan	nan	nan	nan	nan	
74	0.73	-1572.28173828125	983.3410034179688	21.45173072814941	-1570.11572265625	983.9135131835938	-107.3897247314453	-1577.0712890625	1041.087036132812	-39.4206428527832	-1355.984497070312	1219.435424804688	-48.15218734741211	-1598.111694335938	1161.703002929688	-51.62009811401367	-1555.869506835938	1409.976196289062	-65.67469024658203	-1398.944458007812	1344.052734375	-53.74446105957031	-1606.47802734375	1271.310546875	2.774266004562378	-1560.034423828125	1372.284423828125	-168.5960540771484	-1470.0908203125	1385.09033203125	-218.7509613037109	-1478.734375	1264.900390625	-288.48583984375	-1446.31982421875	1060.375732421875	-292.813232421875	-1516.852783203125	1044.23974609375	-248.6448974609375	-1374.04443359375	808.609130859375	-286.8597717285156	-1423.380126953125	956.8634033203125	-293.5410766601562	-1372.70556640625	737.91845703125	-279.06689453125	-1500.209716796875	1392.5029296875	99.92115783691406	-1510.49560546875	1326.79443359375	165.0110473632812	-1487.969848632812	1057.369750976562	197.2801971435547	-1536.875854492188	1048.756225585938	116.0068969726562	-1373.814453125	833.5775146484375	138.3683166503906	-1403.574462890625	816.461669921875	206.2522430419922	-1458.848388671875	991.3043823242188	200.9693756103516	-1350.894287109375	660.9378051757812	151.7171020507812	-1340.128173828125	734.3468627929688	150.5211486816406	-1386.865478515625	733.9043579101562	202.6575012207031	-1529.77294921875	1603.5693359375	20.52960586547852	-1361.407470703125	1629.869995117188	-100.9509811401367	-1369.392700195312	1629.37353515625	-1.186275839805603	-1543.4541015625	1595.938720703125	-124.042724609375	-1481.20703125	925.2628784179688	-209.5985565185547	-1389.337890625	955.3037719726562	92.08298492431641	-1362.388549804688	949.5711059570312	-146.4646148681641	-1454.601440429688	466.6231689453125	-185.2557373046875	-1444.895874023438	604.5950927734375	-196.8267669677734	-1558.9736328125	49.84014511108398	-165.8206329345703	-1507.938354492188	251.4376525878906	-187.0255279541016	-1355.734619140625	46.22525024414062	-99.27300262451172	-1425.5703125	33.60752105712891	-60.80543518066406	-1432.839233398438	45.95199203491211	-174.2628784179688	-1595.860717773438	46.49020004272461	-99.31714630126953	-1480.889038085938	461.2196350097656	101.8588180541992	-1433.28564453125	717.5938720703125	133.4854431152344	-1558.750854492188	54.4979133605957	69.24839782714844	-1481.113647460938	340.7225646972656	91.01139068603516	-1363.724609375	45.34577178955078	26.41863059997559	-1457.58642578125	42.42723846435547	93.26322937011719	-1607.90625	52.25170516967773	19.68267250061035	-1496.277099609375	926.9627685546875	131.7277526855469	-1417.794189453125	40.25872802734375	-17.17717552185059	-1344.4658203125	823.615966796875	-225.5503540039062	-1329.945190429688	660.9932861328125	-218.1940765380859	-1333.117553710938	737.9234619140625	-234.6729583740234	nan	nan	nan	nan	nan	nan	nan	nan	nan	nan	nan	nan	
75	0.74	-1572.368286132812	983.4649047851562	21.49555397033691	-1570.295166015625	984.0404663085938	-107.3136825561523	-1577.240112304688	1041.186279296875	-39.28938293457031	-1355.990478515625	1219.457763671875	-48.15157699584961	-1598.265991210938	1161.792724609375	-51.55553817749023	-1555.94677734375	1410.031005859375	-65.76926422119141	-1399.035278320312	1344.029907226562	-53.79662704467773	-1606.575805664062	1271.412963867188	2.74263072013855	-1560.070434570312	1372.290649414062	-168.6566162109375	-1470.0986328125	1385.051025390625	-218.7926940917969	-1478.880004882812	1264.807250976562	-288.5098266601562	-1446.630737304688	1060.245849609375	-292.6865234375	-1517.134765625	1044.226440429688	-248.4745635986328	-1374.651489257812	808.3908081054688	-286.6254577636719	-1423.736450195312	956.7258911132812	-293.3129577636719	-1373.451049804688	737.704833984375	-278.8302001953125	-1500.240356445312	1392.587646484375	99.90206909179688	-1510.634643554688	1326.932006835938	164.9634552001953	-1488.172241210938	1057.462158203125	197.3183746337891	-1537.168334960938	1048.875	115.9552459716797	-1373.9755859375	833.6575927734375	138.3669891357422	-1404	816.5158081054688	206.1752014160156	-1459.177124023438	991.3776245117188	200.9787292480469	-1351.368530273438	660.872314453125	151.6163635253906	-1340.395629882812	734.4242553710938	150.5078277587891	-1387.247192382812	733.9475708007812	202.6119842529297	-1530.019897460938	1603.53173828125	20.2745304107666	-1361.730834960938	1630.025268554688	-101.1679306030273	-1369.6962890625	1629.636962890625	-1.290062665939331	-1543.571044921875	1595.706176757812	-124.2138748168945	-1481.326538085938	925.281005859375	-209.4905242919922	-1389.4560546875	955.2774047851562	92.14398956298828	-1362.497314453125	949.5391235351562	-146.3308258056641	-1454.801879882812	466.6246643066406	-185.2080993652344	-1445.03662109375	604.5814208984375	-196.7200012207031	-1558.9716796875	49.82954025268555	-165.8110046386719	-1508.056762695312	251.4470520019531	-186.9961700439453	-1355.73876953125	46.2287712097168	-99.27244567871094	-1425.572998046875	33.60088348388672	-60.79938507080078	-1432.834594726562	45.96211242675781	-174.2581024169922	-1595.861206054688	46.4675178527832	-99.30416107177734	-1481.346313476562	461.1995849609375	101.9135818481445	-1433.62109375	717.6910400390625	133.6431274414062	-1558.777099609375	54.4557991027832	69.29270172119141	-1481.52734375	340.7001953125	91.05968475341797	-1363.728637695312	45.3575439453125	26.42302894592285	-1457.5986328125	42.42032623291016	93.29476928710938	-1607.930419921875	52.19975662231445	19.68489646911621	-1496.502807617188	927.0872192382812	131.7920227050781	-1417.80615234375	40.27745819091797	-17.15243911743164	-1345.03515625	823.4287719726562	-225.3531646728516	-1330.51416015625	660.8920288085938	-218.0191497802734	-1333.881469726562	737.7145385742188	-234.4721221923828	nan	nan	nan	nan	nan	nan	nan	nan	nan	nan	nan	nan	
76	0.75	-1572.4677734375	983.59228515625	21.541748046875	-1570.465942382812	984.1644897460938	-107.2469787597656	-1577.417602539062	1041.287109375	-39.14755630493164	-1355.993530273438	1219.48095703125	-48.15425109863281	-1598.39794921875	1161.870483398438	-51.49908447265625	-1556.030151367188	1410.084838867188	-65.87017822265625	-1399.142333984375	1343.995971679688	-53.85319137573242	-1606.680908203125	1271.509643554688	2.699437618255615	-1560.10693359375	1372.295043945312	-168.7237854003906	-1470.103515625	1385.008911132812	-218.8359527587891	-1479.009643554688	1264.712280273438	-288.5310668945312	-1446.947631835938	1060.11279296875	-292.5498046875	-1517.414306640625	1044.213256835938	-248.2820434570312	-1375.314208984375	808.1556396484375	-286.3873596191406	-1424.121459960938	956.57666015625	-293.0769958496094	-1374.290161132812	737.4764404296875	-278.6065673828125	-1500.290161132812	1392.665283203125	99.88130187988281	-1510.81005859375	1327.076293945312	164.8971710205078	-1488.410522460938	1057.54638671875	197.3101959228516	-1537.466796875	1048.998168945312	115.8787155151367	-1374.177734375	833.7348022460938	138.3570251464844	-1404.48193359375	816.5669555664062	206.1258850097656	-1459.514526367188	991.436279296875	201.0005187988281	-1351.8505859375	660.7930297851562	151.4736785888672	-1340.761840820312	734.4901123046875	150.4638824462891	-1387.660034179688	733.9920654296875	202.5447540283203	-1530.293090820312	1603.485229492188	19.99774551391602	-1362.054809570312	1630.181762695312	-101.3729476928711	-1370.052856445312	1629.901123046875	-1.349889636039734	-1543.663208007812	1595.462890625	-124.3853225708008	-1481.441528320312	925.2964477539062	-209.3833312988281	-1389.591186523438	955.2452392578125	92.21675109863281	-1362.613159179688	949.5039672851562	-146.1935729980469	-1455.010986328125	466.6221923828125	-185.1558532714844	-1445.179077148438	604.5638427734375	-196.6112670898438	-1558.970336914062	49.81562042236328	-165.8000183105469	-1508.180908203125	251.4538726806641	-186.9662933349609	-1355.7431640625	46.23168563842773	-99.27027893066406	-1425.575561523438	33.59518814086914	-60.79276657104492	-1432.829956054688	45.97647476196289	-174.2540435791016	-1595.862670898438	46.44372177124023	-99.28925323486328	-1481.843627929688	461.2051696777344	101.9908142089844	-1433.856689453125	717.697021484375	133.6365356445312	-1558.802856445312	54.4150276184082	69.33450317382812	-1481.984497070312	340.6770324707031	91.13220977783203	-1363.733520507812	45.37430191040039	26.42746925354004	-1457.608764648438	42.41617584228516	93.3287353515625	-1607.957397460938	52.14334487915039	19.68856811523438	-1496.750854492188	927.226806640625	131.8677215576172	-1417.819702148438	40.29764556884766	-17.12631607055664	-1345.75244140625	823.1652221679688	-225.1375122070312	-1331.175048828125	660.7796630859375	-217.8641662597656	-1334.745361328125	737.4923706054688	-234.2875061035156	nan	nan	nan	nan	nan	nan	nan	nan	nan	nan	nan	nan	
